HIERARCHY
ROOT root     
{
	OFFSET 0.0000 0.0000 0.0000
	CHANNELS 6 Xposition Yposition Zposition Zrotation Yrotation Xrotation
	JOINT pelvis   
	{
		OFFSET 0.0000 0.0000 0.0000
		CHANNELS 3 Zrotation Yrotation Xrotation
		JOINT thorax   
		{
			OFFSET 0.0000 23.0750 -5.0000
			CHANNELS 3 Zrotation Yrotation Xrotation
			JOINT rclavicle
			{
				OFFSET 0.0000 28.0009 0.0000
				CHANNELS 3 Zrotation Yrotation Xrotation
				JOINT rhumerus 
				{
					OFFSET -18.5725 5.5939 0.0000
					CHANNELS 3 Zrotation Yrotation Xrotation
					JOINT rradius  
					{
						OFFSET -24.8459 0.0000 0.0000
						CHANNELS 3 Zrotation Yrotation Xrotation
						JOINT rhand    
						{
							OFFSET -24.5477 0.0000 0.0000
							CHANNELS 3 Zrotation Yrotation Xrotation
							End Site
							{
								OFFSET -8.1826 0.0000 0.0000
							}
						}
					}
				}
			}
			JOINT lclavicle
			{
				OFFSET 0.0000 28.0009 0.0000
				CHANNELS 3 Zrotation Yrotation Xrotation
				JOINT lhumerus 
				{
					OFFSET 18.5725 5.5939 0.0000
					CHANNELS 3 Zrotation Yrotation Xrotation
					JOINT lradius  
					{
						OFFSET 24.8459 0.0000 0.0000
						CHANNELS 3 Zrotation Yrotation Xrotation
						JOINT lhand    
						{
							OFFSET 24.5477 0.0000 0.0000
							CHANNELS 3 Zrotation Yrotation Xrotation
							End Site
							{
								OFFSET 8.1826 0.0000 0.0000
							}
						}
					}
				}
			}
			JOINT head     
			{
				OFFSET 0.0000 35.2030 0.0000
				CHANNELS 3 Zrotation Yrotation Xrotation
				End Site
				{
					OFFSET 0.0000 11.7343 0.0000
				}
			}
		}
		JOINT rfemur   
		{
			OFFSET -8.2817 0.0000 0.0000
			CHANNELS 3 Zrotation Yrotation Xrotation
			JOINT rtibia   
			{
				OFFSET 0.0000 -43.3627 0.0000
				CHANNELS 3 Zrotation Yrotation Xrotation
				JOINT rfoot    
				{
					OFFSET 0.0000 -38.2947 0.0000
					CHANNELS 3 Zrotation Yrotation Xrotation
					JOINT rtoes    
					{
						OFFSET 0.0000 0.0000 16.6054
						CHANNELS 3 Zrotation Yrotation Xrotation
						End Site
						{
							OFFSET 0.0000 0.0000 5.5351
						}
					}
				}
			}
		}
		JOINT lfemur   
		{
			OFFSET 8.2817 0.0000 0.0000
			CHANNELS 3 Zrotation Yrotation Xrotation
			JOINT ltibia   
			{
				OFFSET 0.0000 -43.3627 0.0000
				CHANNELS 3 Zrotation Yrotation Xrotation
				JOINT lfoot    
				{
					OFFSET 0.0000 -38.2947 0.0000
					CHANNELS 3 Zrotation Yrotation Xrotation
					JOINT ltoes    
					{
						OFFSET 0.0000 0.0000 16.6054
						CHANNELS 3 Zrotation Yrotation Xrotation
						End Site
						{
							OFFSET 0.0000 0.0000 5.5351
						}
					}
				}
			}
		}
	}
}
MOTION
Frames: 9
Frame Time: .0333333
-31.927 74.586 -14.593 29.8216 78.4995 51.88 0 -0 0 -1.81437 -14.9633 20.3255 18.8606 -15.2446 -0.000135679 57.7683 -20.4887 3.02761 -180 89.2025 -180 5.64991 3.99727 0.197298 -11.4508 11.8324 3.06387e-05 -46.4985 16.7591 2.09015 -180 -82.4816 180 -2.28314 3.5569 -0.0709012 5.84244 -4.05646 -16.3199 18.5521 -13.2249 -68.0396 -0 -0 50.9902 1.53844e-05 -23.4117 -10.9639 -175.292 -2.57187e-05 -25.879 -9.19679 20.6912 -37.3767 -0 -0 76.5827 -2.68136e-07 -3.85291 -2.76169 0.185894 3.12675e-06 -79.7937 
-31.113 74.533 -14.424 28.7119 78.1411 50.6279 0 -0 0 -1.25468 -15.0335 20.0607 19.2539 -15.0529 3.13869e-05 58.3678 -19.7346 1.56727 -180 89.4489 -180 5.29839 3.9848 0.184399 -11.6616 12.0663 3.07195e-05 -48.2097 17.3821 1.59706 -180 -83.1814 180 -2.64156 3.62473 -0.0836033 5.54232 -4.17178 -16.3423 18.3387 -13.0728 -67.7369 -0 -0 51.9779 -2.65708e-05 -23.3588 -11.6497 -175.016 -3.49825e-06 -25.7463 -8.5989 20.7895 -36.8099 -0 -0 76.9831 -2.92385e-06 -4.88137 -1.74595 0.149101 3.8159e-08 -80.8773 
-30.31 74.495 -14.249 27.6262 77.7571 49.4314 0 -0 0 -0.72233 -15.1017 19.7391 19.6749 -14.8959 1.55171e-05 58.9162 -18.9658 0.163692 -180 89.6611 -180 4.76326 3.94186 0.163996 -11.8374 12.3358 -2.09393e-05 -49.9953 17.9655 1.00085 -180 -83.9846 180 -3.16016 3.70927 -0.1024 5.29587 -4.33935 -16.2908 18.1131 -12.8787 -67.3686 -0 -0 52.8108 -2.51738e-05 -23.3053 -12.3819 -174.723 -2.32942e-05 -25.6357 -8.04039 20.8774 -36.2756 -0 -0 77.3358 -1.79393e-07 -5.8661 -0.7313 0.0750988 5.35486e-08 -81.7656 
-29.522 74.47 -14.07 26.5974 77.3403 48.3342 0 -0 0 -0.223485 -15.1683 19.3481 20.1011 -14.7791 5.75107e-05 59.421 -18.196 -1.15229 -180 89.7601 -180 4.05259 3.89225 0.137801 -11.988 12.6401 -2.77915e-05 -51.8196 18.5053 0.307018 -180 -84.8575 180 -3.80214 3.81987 -0.126802 5.1031 -4.5604 -16.1635 17.8583 -12.6297 -66.9553 -0 -0 53.5051 -8.68626e-05 -23.2639 -13.1343 -174.42 1.0657e-06 -25.5816 -7.54001 20.9569 -35.7933 -0 -0 77.6471 1.49174e-07 -6.76873 0.274608 -0.0325998 3.96716e-07 -82.3939 
-28.749 74.459 -13.891 25.6588 76.8888 47.3713 0 -0 0 0.236351 -15.2342 18.8888 20.5236 -14.7054 -6.11585e-05 59.8878 -17.4408 -2.36996 -180 89.8139 -180 3.19638 3.83322 0.107004 -12.1255 12.9826 -3.25277e-05 -53.6444 18.9849 -0.465581 -180 -85.8131 180 -4.52758 3.96955 -0.157001 4.96128 -4.83665 -15.9639 17.5693 -12.3381 -66.5237 -0 -0 54.0925 0.000151413 -23.2279 -13.8876 -174.119 1.27506e-05 -25.6085 -7.11492 21.0291 -35.3764 -0 -0 77.9264 -2.02517e-06 -7.57428 1.28524 -0.170904 -3.28626e-06 -82.7237 
-27.99 74.463 -13.717 24.8395 76.4117 46.5688 0 -0 0 0.65923 -15.302 18.3646 20.9335 -14.6776 -4.04226e-05 60.3193 -16.7112 -3.49402 -0 90 -0 2.24626 3.73484 0.073199 -12.2626 13.3799 4.01105e-05 -55.4301 19.3668 -1.28079 -180 -86.8499 180 -5.30186 4.16828 -0.193101 4.8633 -5.16691 -15.7041 17.2504 -12.0262 -66.0964 -0 -0 54.6061 -0.000111336 -23.1842 -14.6197 -173.83 3.64241e-05 -25.7015 -6.77468 21.0888 -35.0343 -0 -0 78.1867 -5.42042e-06 -8.28239 2.32398 -0.338202 -1.44385e-07 -82.6487 
-27.252 74.483 -13.548 24.1251 75.9046 45.9235 0 -0 0 1.04912 -15.3683 17.775 21.3164 -14.6902 1.93573e-05 60.7211 -16.02 -4.50609 -0 89.7841 -0 1.22915 3.63077 0.0390015 -12.4134 13.8159 -6.22295e-05 -57.1325 19.6698 -2.11617 -180 -87.9255 180 -6.05497 4.41004 -0.2334 4.80808 -5.54521 -15.3952 16.9084 -11.6932 -65.6972 -0 -0 55.0566 -3.21656e-05 -23.1341 -15.3052 -173.566 4.85857e-05 -25.8342 -6.52504 21.1463 -34.7886 -0 -0 78.4406 6.18335e-06 -8.86583 3.37461 -0.526099 3.31479e-06 -82.194 
-26.532 74.519 -13.387 23.5055 75.3728 45.4183 0 -0 0 1.41413 -15.4351 17.1349 21.6689 -14.7424 -4.18558e-05 61.0926 -15.3738 -5.41973 -0.000241469 89.7688 -0.000241549 0.205799 3.48903 0.00630008 -12.5861 14.3026 3.17688e-05 -58.7189 19.8645 -2.92591 -180 -89.0887 180 -6.75339 4.68729 -0.276704 4.7871 -5.96408 -15.0576 16.5616 -11.3669 -65.3446 -0 -0 55.4673 -3.46067e-05 -23.0576 -15.9354 -173.334 -9.80331e-06 -26.0096 -6.36385 21.2009 -34.6428 -0 -0 78.6994 -2.70341e-06 -9.33463 4.44682 -0.730182 1.8298e-06 -81.173 
-25.835 74.572 -13.233 22.9591 74.8161 45.0365 0 -0 0 1.7612 -15.4954 16.45 21.9831 -14.8243 1.47995e-05 61.4357 -14.7811 -6.22586 -0.000252155 89.7737 -0.00025232 -0.792905 3.33809 -0.0231002 -12.7887 14.8157 -2.01366e-05 -60.1567 19.9756 -3.68363 -0.00023345 -89.7438 0.000233557 -7.34034 4.98078 -0.319701 4.80067 -6.41603 -14.7056 16.2236 -11.0544 -65.0447 -0 -0 55.8404 6.43598e-06 -22.9473 -16.4958 -173.145 -2.72716e-05 -26.152 -6.28545 21.2638 -34.6069 -0 -0 78.9702 -1.12192e-05 -9.67643 5.5158 -0.938899 -5.20429e-06 -79.7016 
